<svg width="45" height="45" viewBox="0 0 45 45" fill="none" xmlns="http://www.w3.org/2000/svg">
<path d="M30.2313 24.9072C32.5487 24.9072 34.4258 26.7526 34.4258 29.0294C34.4258 31.3049 32.5487 33.1503 30.2313 33.1503C27.9152 33.1503 26.0368 31.3049 26.0368 29.0294C26.0368 26.7526 27.9152 24.9072 30.2313 24.9072ZM19.8906 27.2715C20.9057 27.2715 21.7297 28.081 21.7297 29.0783C21.7297 30.0742 20.9057 30.8851 19.8906 30.8851H11.8703C10.8552 30.8851 10.0312 30.0742 10.0312 29.0783C10.0312 28.081 10.8552 27.2715 11.8703 27.2715H19.8906ZM14.2257 11.4663C16.5432 11.4663 18.4202 13.3117 18.4202 15.5872C18.4202 17.864 16.5432 19.7095 14.2257 19.7095C11.9096 19.7095 10.0313 17.864 10.0313 15.5872C10.0313 13.3117 11.9096 11.4663 14.2257 11.4663ZM32.588 13.7817C33.6018 13.7817 34.4258 14.5913 34.4258 15.5872C34.4258 16.5845 33.6018 17.394 32.588 17.394H24.5677C23.5526 17.394 22.7287 16.5845 22.7287 15.5872C22.7287 14.5913 23.5526 13.7817 24.5677 13.7817H32.588Z" fill="#5D7285"/>
</svg>
