<svg width="16" height="16" viewBox="0 0 16 16" fill="none" xmlns="http://www.w3.org/2000/svg">
    <path d="M8 3C4.36364 3 1.25818 5.31818 0 8.5C1.25818 11.6818 4.36364 14 8 14C11.6364 14 14.7418 11.6818 16 8.5C14.7418 5.31818 11.6364 3 8 3ZM8 12.1667C5.99273 12.1667 4.36364 10.5376 4.36364 8.5C4.36364 6.46243 5.99273 4.83333 8 4.83333C10.0073 4.83333 11.6364 6.46243 11.6364 8.5C11.6364 10.5376 10.0073 12.1667 8 12.1667ZM8 6.33333C6.81818 6.33333 5.86364 7.28788 5.86364 8.5C5.86364 9.71212 6.81818 10.6667 8 10.6667C9.18182 10.6667 10.1364 9.71212 10.1364 8.5C10.1364 7.28788 9.18182 6.33333 8 6.33333Z" fill="#71727A"/>
</svg>