<svg width="45" height="45" viewBox="0 0 45 45" fill="none" xmlns="http://www.w3.org/2000/svg">
<path d="M27.9189 10.5253C29.6735 10.4156 31.4037 11.0249 32.7075 12.219C33.9016 13.5227 34.5108 15.2529 34.4133 17.0197V28.4002C34.523 30.167 33.9016 31.8972 32.7197 33.2009C31.4159 34.395 29.6735 35.0043 27.9189 34.8946H16.5383C14.7715 35.0043 13.0413 34.395 11.7375 33.2009C10.5434 31.8972 9.93419 30.167 10.0439 28.4002V17.0197C9.93419 15.2529 10.5434 13.5227 11.7375 12.219C13.0413 11.0249 14.7715 10.4156 16.5383 10.5253H27.9189ZM27.6021 16.0937C26.8466 15.3382 25.6281 15.3382 24.8727 16.0937L24.0563 16.9222C23.9345 17.0441 23.9345 17.2512 24.0563 17.3731C24.0563 17.3731 24.0802 17.3968 24.1228 17.4392L24.4225 17.7372C24.5959 17.9097 24.8123 18.1251 25.0296 18.3418L25.7664 19.0782C25.9201 19.2327 26.0221 19.3362 26.0302 19.347C26.1643 19.4932 26.2496 19.6882 26.2496 19.9075C26.2496 20.3461 25.8962 20.7117 25.4454 20.7117C25.2382 20.7117 25.0433 20.6264 24.9092 20.4923L22.8744 18.4697C22.7769 18.3722 22.6063 18.3722 22.5089 18.4697L16.6967 24.2818C16.2946 24.6839 16.0631 25.22 16.0509 25.7927L15.9778 28.6804C15.9778 28.8388 16.0266 28.985 16.1362 29.0947C16.2459 29.2044 16.3921 29.2653 16.5505 29.2653H19.4139C19.9988 29.2653 20.5593 29.0338 20.9858 28.6195L29.1861 20.3949C29.9294 19.6394 29.9294 18.421 29.1861 17.6777L27.6021 16.0937Z" fill="#5D7285"/>
</svg>
