<svg xmlns="http://www.w3.org/2000/svg" width="21" height="20" viewBox="0 0 21 20" fill="none">
  <mask id="mask0_2235_117" style="mask-type:alpha" maskUnits="userSpaceOnUse" x="0" y="1" width="21" height="18">
    <path d="M2.49872 3.46324H17.7513C18.3505 3.46324 18.8408 2.97298 18.8408 2.37377C18.8408 1.77456 18.3505 1.2843 17.7513 1.2843H2.49872C1.89951 1.2843 1.40925 1.77456 1.40925 2.37377C1.40925 2.97298 1.89951 3.46324 2.49872 3.46324ZM19.0151 5.42428C18.917 4.92313 18.4703 4.55271 17.9474 4.55271H2.30261C1.77967 4.55271 1.33299 4.92313 1.23493 5.42428L0.145465 10.8716C0.0147289 11.5471 0.526779 12.179 1.21314 12.179H1.40925V17.6263C1.40925 18.2255 1.89951 18.7158 2.49872 18.7158H11.2145C11.8137 18.7158 12.3039 18.2255 12.3039 17.6263V12.179H16.6618V17.6263C16.6618 18.2255 17.1521 18.7158 17.7513 18.7158C18.3505 18.7158 18.8408 18.2255 18.8408 17.6263V12.179H19.0369C19.7232 12.179 20.2353 11.5471 20.1045 10.8716L19.0151 5.42428ZM10.125 16.5369H3.58819V12.179H10.125V16.5369Z" fill="black"/>
  </mask>
  <g mask="url(#mask0_2235_117)">
    <rect x="0.125" y="-0.00109863" width="20" height="20" fill="#D4D6DD"/>
  </g>
</svg>