<svg width="45" height="45" viewBox="0 0 45 45" fill="none" xmlns="http://www.w3.org/2000/svg">
<path d="M18.7337 32.8641V29.1346C18.7337 28.1825 19.5112 27.4107 20.4702 27.4107H23.9759C24.4364 27.4107 24.8781 27.5923 25.2038 27.9156C25.5294 28.2389 25.7124 28.6774 25.7124 29.1346V32.8641C25.7095 33.26 25.8658 33.6405 26.1467 33.9214C26.4276 34.2023 26.8099 34.3603 27.2086 34.3603H29.6003C30.7173 34.3632 31.7896 33.9247 32.5805 33.1416C33.3714 32.3585 33.8159 31.2951 33.8159 30.1862V19.5612C33.8159 18.6655 33.4159 17.8158 32.7238 17.2411L24.5875 10.7902C23.1722 9.65913 21.1443 9.69565 19.7712 10.8769L11.8206 17.2411C11.0958 17.7988 10.6625 18.651 10.6411 19.5612V30.1754C10.6411 32.4867 12.5285 34.3603 14.8567 34.3603H17.1938C18.0219 34.3603 18.695 33.6971 18.701 32.875L18.7337 32.8641Z" fill="#5D7285"/>
</svg>
