<svg width="36" height="35" viewBox="0 0 36 35" fill="none" xmlns="http://www.w3.org/2000/svg">
<rect x="0.953735" y="0.271484" width="34.9614" height="34.0221" rx="7.3179" fill="#006FFD"/>
<path d="M17.5047 21.0674C18.0034 20.5758 18.8117 20.5758 19.3104 21.0674L23.0213 24.7256C23.52 25.2172 23.52 26.0143 23.0213 26.5059L19.3104 30.1641C18.8117 30.6557 18.0034 30.6557 17.5047 30.1641L13.7928 26.5059C13.2944 26.0143 13.2944 25.2172 13.7928 24.7256L17.5047 21.0674ZM26.2635 12.7637C26.7622 12.2723 27.5706 12.2722 28.0692 12.7637L31.7801 16.4229C32.2788 16.9145 32.2788 17.7116 31.7801 18.2032L28.0692 21.8614C27.5706 22.3529 26.7622 22.3529 26.2635 21.8614L22.5516 18.2032C22.0531 17.7117 22.0533 16.9145 22.5516 16.4229L26.2635 12.7637ZM8.79966 12.7549C9.29834 12.2633 10.1076 12.2633 10.6063 12.7549L14.3172 16.4131C14.8159 16.9047 14.8159 17.7018 14.3172 18.1934L10.6063 21.8516C10.1076 22.3432 9.29834 22.3432 8.79966 21.8516L5.08873 18.1934C4.59005 17.7018 4.59005 16.9047 5.08873 16.4131L8.79966 12.7549ZM17.9735 16.6055C18.2228 16.3598 18.6275 16.3598 18.8768 16.6055L19.1229 16.8487C19.3722 17.0945 19.3722 17.4935 19.1229 17.7393L18.8768 17.9815C18.6275 18.2273 18.2228 18.2273 17.9735 17.9815L17.7274 17.7393C17.4781 17.4935 17.4781 17.0945 17.7274 16.8487L17.9735 16.6055ZM17.5047 4.4014C18.0034 3.90982 18.8117 3.90982 19.3104 4.4014L23.0213 8.05961C23.52 8.5512 23.52 9.34829 23.0213 9.83988L19.3104 13.4991C18.8118 13.9904 18.0034 13.9903 17.5047 13.4991L13.7928 9.83988C13.2945 9.34828 13.2943 8.55111 13.7928 8.05961L17.5047 4.4014Z" fill="white"/>
</svg>
