<svg width="30" height="30" viewBox="0 0 30 30" fill="none" xmlns="http://www.w3.org/2000/svg">
<path d="M14.6066 2.57812C17.6345 2.57812 20.1039 5.00523 20.1039 7.99337V13.8355H12.6584C12.1248 13.8355 11.7029 14.2502 11.7029 14.7746C11.7029 15.2869 12.1248 15.7138 12.6584 15.7138H20.1039V21.5437C20.1039 24.5318 17.6345 26.9711 14.5818 26.9711H8.53851C5.49825 26.9711 3.02881 24.544 3.02881 21.5559V8.00557C3.02881 5.00523 5.51065 2.57812 8.55092 2.57812H14.6066ZM23.2021 10.5671C23.568 10.189 24.1656 10.189 24.5315 10.5549L28.0929 14.1041C28.2758 14.287 28.3734 14.5187 28.3734 14.7749C28.3734 15.0188 28.2758 15.2627 28.0929 15.4335L24.5315 18.9827C24.3485 19.1656 24.1046 19.2632 23.8729 19.2632C23.6289 19.2632 23.385 19.1656 23.2021 18.9827C22.8362 18.6168 22.8362 18.0191 23.2021 17.6532L25.1535 15.714H20.1042V13.8357H25.1535L23.2021 11.8965C22.8362 11.5306 22.8362 10.933 23.2021 10.5671Z" fill="white"/>
</svg>
