<svg width="45" height="45" viewBox="0 0 45 45" fill="none" xmlns="http://www.w3.org/2000/svg">
<path d="M27.3404 10.0596C31.1081 10.0596 33.206 12.2307 33.206 15.9508V28.5506C33.206 32.3318 31.1081 34.4541 27.3404 34.4541H17.1179C13.4099 34.4541 11.251 32.3318 11.251 28.5506V15.9508C11.251 12.2307 13.4099 10.0596 17.1179 10.0596H27.3404ZM17.4472 26.8186C17.0813 26.782 16.7275 26.9528 16.5324 27.2699C16.3372 27.5748 16.3372 27.9773 16.5324 28.2945C16.7275 28.5994 17.0813 28.7824 17.4472 28.7336H27.0098C27.4965 28.6848 27.8636 28.2689 27.8636 27.7822C27.8636 27.2821 27.4965 26.8674 27.0098 26.8186H17.4472ZM27.0098 21.2554H17.4472C16.9215 21.2554 16.4958 21.6836 16.4958 22.208C16.4958 22.7325 16.9215 23.1594 17.4472 23.1594H27.0098C27.5343 23.1594 27.9612 22.7325 27.9612 22.208C27.9612 21.6836 27.5343 21.2554 27.0098 21.2554ZM21.0929 15.7313H17.4472V15.7435C16.9215 15.7435 16.4958 16.1704 16.4958 16.6949C16.4958 17.2194 16.9215 17.6463 17.4472 17.6463H21.0929C21.6186 17.6463 22.0455 17.2194 22.0455 16.6815C22.0455 16.1582 21.6186 15.7313 21.0929 15.7313Z" fill="#5D7285"/>
</svg>
