<svg xmlns="http://www.w3.org/2000/svg" width="21" height="20" viewBox="0 0 21 20" fill="none">
  <mask id="mask0_2235_295" style="mask-type:alpha" maskUnits="userSpaceOnUse" x="2" y="1" width="18" height="18">
    <path d="M3.23619 8.61026C3.052 8.61026 2.87535 8.53709 2.7451 8.40685C2.61486 8.2766 2.54169 8.09995 2.54169 7.91576V2.36113C2.54169 2.17693 2.61486 2.00029 2.7451 1.87004C2.87535 1.7398 3.052 1.66663 3.23619 1.66663H8.79221C8.9764 1.66663 9.15305 1.7398 9.2833 1.87004C9.41354 2.00029 9.48671 2.17693 9.48671 2.36113V7.91576C9.48671 8.09995 9.41354 8.2766 9.2833 8.40685C9.15305 8.53709 8.9764 8.61026 8.79221 8.61026H3.23619ZM12.9592 8.61026C12.775 8.61026 12.5984 8.53709 12.4681 8.40685C12.3379 8.2766 12.2647 8.09995 12.2647 7.91576V2.36113C12.2647 2.17693 12.3379 2.00029 12.4681 1.87004C12.5984 1.7398 12.775 1.66663 12.9592 1.66663H18.5139C18.698 1.66663 18.8747 1.7398 19.0049 1.87004C19.1352 2.00029 19.2084 2.17693 19.2084 2.36113V7.91576C19.2084 8.09995 19.1352 8.2766 19.0049 8.40685C18.8747 8.53709 18.698 8.61026 18.5139 8.61026H12.9592ZM3.23619 18.3333C3.052 18.3333 2.87535 18.2601 2.7451 18.1299C2.61486 17.9996 2.54169 17.823 2.54169 17.6388V12.0828C2.54169 11.8986 2.61486 11.7219 2.7451 11.5917C2.87535 11.4614 3.052 11.3883 3.23619 11.3883H8.79221C8.9764 11.3883 9.15305 11.4614 9.2833 11.5917C9.41354 11.7219 9.48671 11.8986 9.48671 12.0828V17.6388C9.48671 17.823 9.41354 17.9996 9.2833 18.1299C9.15305 18.2601 8.9764 18.3333 8.79221 18.3333H3.23619ZM12.9592 18.3333C12.775 18.3333 12.5984 18.2601 12.4681 18.1299C12.3379 17.9996 12.2647 17.823 12.2647 17.6388V12.0828C12.2647 11.8986 12.3379 11.7219 12.4681 11.5917C12.5984 11.4614 12.775 11.3883 12.9592 11.3883H18.5139C18.698 11.3883 18.8747 11.4614 19.0049 11.5917C19.1352 11.7219 19.2084 11.8986 19.2084 12.0828V17.6388C19.2084 17.823 19.1352 17.9996 19.0049 18.1299C18.8747 18.2601 18.698 18.3333 18.5139 18.3333H12.9592Z" fill="black"/>
  </mask>
  <g mask="url(#mask0_2235_295)">
    <rect x="0.875" y="-0.00109863" width="20" height="20" fill="#D4D6DD"/>
  </g>
</svg>