<svg width="45" height="45" viewBox="0 0 45 45" fill="none" xmlns="http://www.w3.org/2000/svg">
<path d="M23.1033 10.7002C24.0257 10.7002 24.8609 11.2125 25.3221 11.9687C25.5465 12.3346 25.6961 12.7859 25.6587 13.2616C25.6337 13.6275 25.7459 13.9935 25.9454 14.335C26.5811 15.3717 27.9896 15.7621 29.0866 15.1766C30.3206 14.4691 31.8787 14.8961 32.5892 16.1036L33.4244 17.5429C34.1474 18.7504 33.7485 20.2994 32.502 20.9947C31.4425 21.6167 31.0685 22.995 31.7042 24.044C31.9037 24.3733 32.128 24.6539 32.4771 24.8246C32.9133 25.0564 33.2499 25.4223 33.4867 25.7882C33.9479 26.5444 33.9105 27.4714 33.4618 28.2886L32.5892 29.7523C32.128 30.5329 31.2679 31.0208 30.3829 31.0208C29.9466 31.0208 29.4605 30.8988 29.0616 30.6549C28.7375 30.4475 28.3636 30.3744 27.9647 30.3744C26.7307 30.3744 25.6961 31.3867 25.6587 32.5943C25.6587 33.997 24.5119 35.0947 23.0784 35.0947H21.3831C19.9372 35.0947 18.7904 33.997 18.7904 32.5943C18.7655 31.3867 17.7309 30.3744 16.4968 30.3744C16.0855 30.3744 15.7115 30.4475 15.3999 30.6549C15.001 30.8988 14.5024 31.0208 14.0786 31.0208C13.1811 31.0208 12.321 30.5329 11.8598 29.7523L10.9997 28.2886C10.5385 27.4958 10.5136 26.5444 10.9748 25.7882C11.1742 25.4223 11.5482 25.0564 11.972 24.8246C12.321 24.6539 12.5454 24.3733 12.7573 24.044C13.3806 22.995 13.0066 21.6167 11.9471 20.9947C10.713 20.2994 10.3142 18.7504 11.0247 17.5429L11.8598 16.1036C12.5828 14.8961 14.1285 14.4691 15.375 15.1766C16.4594 15.7621 17.868 15.3717 18.5037 14.335C18.7032 13.9935 18.8153 13.6275 18.7904 13.2616C18.7655 12.7859 18.9026 12.3346 19.1394 11.9687C19.6006 11.2125 20.4358 10.7246 21.3457 10.7002H23.1033ZM22.2432 19.4578C20.2862 19.4578 18.7032 20.9947 18.7032 22.9096C18.7032 24.8246 20.2862 26.3493 22.2432 26.3493C24.2002 26.3493 25.7459 24.8246 25.7459 22.9096C25.7459 20.9947 24.2002 19.4578 22.2432 19.4578Z" fill="#5D7285"/>
</svg>
