<svg width="45" height="45" viewBox="0 0 45 45" fill="none" xmlns="http://www.w3.org/2000/svg">
<path d="M22.1663 25.4482C26.3514 25.4482 29.9249 26.1117 29.9249 28.7668C29.9249 31.4207 26.3744 32.1084 22.1663 32.1084C17.9812 32.1084 14.4077 31.4449 14.4077 28.7909C14.4077 26.1359 17.9583 25.4482 22.1663 25.4482ZM28.8578 23.8495C30.4578 23.8198 32.1779 24.0395 32.8135 24.1955C34.1602 24.4602 35.0459 25.0007 35.4129 25.7861C35.723 26.4309 35.723 27.179 35.4129 27.8227C34.8515 29.0409 33.0418 29.432 32.3385 29.5331C32.1932 29.555 32.0763 29.4287 32.0916 29.2826C32.451 25.9069 29.5928 24.3064 28.8534 23.9384C28.8218 23.922 28.8152 23.8967 28.8185 23.8813C28.8207 23.8703 28.8338 23.8528 28.8578 23.8495ZM15.2987 23.8472L15.6 23.8499C15.6241 23.8532 15.6361 23.8708 15.6383 23.8807C15.6415 23.8971 15.635 23.9213 15.6044 23.9389C14.8639 24.3069 12.0058 25.9074 12.3651 29.282C12.3804 29.4292 12.2646 29.5544 12.1194 29.5335C11.416 29.4324 9.60633 29.0414 9.04497 27.8232C8.73371 27.1783 8.73371 26.4314 9.04497 25.7866C9.41193 25.0011 10.2966 24.4607 11.6432 24.1948C12.2799 24.0399 13.9989 23.8202 15.6 23.8499L15.2987 23.8472ZM22.1663 12.5928C25.0157 12.5928 27.3005 14.8886 27.3005 17.7557C27.3005 20.6217 25.0157 22.9197 22.1663 22.9197C19.3169 22.9197 17.0322 20.6217 17.0322 17.7557C17.0322 14.8886 19.3169 12.5928 22.1663 12.5928ZM29.1363 13.4538C31.8885 13.4538 34.0499 16.0583 33.3138 18.9594C32.8168 20.9125 31.0181 22.2099 29.014 22.1571C28.813 22.1516 28.6153 22.133 28.4242 22.1C28.2855 22.0758 28.2156 21.9188 28.2943 21.8023C29.0588 20.6709 29.4945 19.3098 29.4945 17.8488C29.4945 16.3241 29.0183 14.9027 28.1916 13.7372C28.1654 13.7009 28.1457 13.6449 28.1719 13.6032C28.1938 13.5691 28.2342 13.5515 28.2724 13.5428C28.5509 13.4856 28.837 13.4538 29.1363 13.4538ZM15.3199 13.4537C15.6191 13.4537 15.9053 13.4855 16.1849 13.5426C16.222 13.5514 16.2635 13.5701 16.2853 13.6031C16.3105 13.6448 16.2919 13.7008 16.2657 13.7371C15.4389 14.9026 14.9628 16.324 14.9628 17.8487C14.9628 19.3097 15.3985 20.6708 16.163 21.8022C16.2417 21.9186 16.1718 22.0757 16.0331 22.0999C15.8408 22.134 15.6443 22.1515 15.4433 22.157C13.4392 22.2097 11.6405 20.9124 11.1435 18.9593C10.4063 16.0582 12.5677 13.4537 15.3199 13.4537Z" fill="#5D7285"/>
</svg>
