<svg width="45" height="45" viewBox="0 0 45 45" fill="none" xmlns="http://www.w3.org/2000/svg">
<path d="M22.2345 10.606C25.5033 10.606 28.1907 13.1746 28.3271 16.4293H28.2953C28.2991 16.5239 28.2809 16.6181 28.2421 16.7046H28.4326C29.917 16.7046 31.4714 17.7334 32.0947 20.2172L32.1624 20.5102L33.1002 28.066C33.7751 32.8852 31.1386 34.9118 27.5419 34.9976L27.3007 35.0005H17.1892C13.534 35.0005 10.7174 33.6685 11.3367 28.3939L11.3789 28.066L12.3276 20.5102C12.7953 17.8355 14.3657 16.7805 15.8788 16.7086L16.0466 16.7046H16.1419C16.1259 16.6135 16.1259 16.5204 16.1419 16.4293C16.2783 13.1746 18.9657 10.606 22.2345 10.606ZM18.6876 20.7654C18.0923 20.7654 17.6097 21.2622 17.6097 21.8749C17.6097 22.4877 18.0923 22.9844 18.6876 22.9844C19.283 22.9844 19.7656 22.4877 19.7656 21.8749L19.7572 21.7357C19.6907 21.1887 19.2372 20.7654 18.6876 20.7654ZM25.7484 20.7654C25.1531 20.7654 24.6704 21.2622 24.6704 21.8749C24.6704 22.4877 25.1531 22.9844 25.7484 22.9844C26.3438 22.9844 26.8264 22.4877 26.8264 21.8749C26.8264 21.2622 26.3438 20.7654 25.7484 20.7654ZM22.1867 12.1945C19.8398 12.1945 17.9373 14.0905 17.9373 16.4293C17.9534 16.5204 17.9534 16.6135 17.9373 16.7046H26.4893C26.4553 16.6167 26.4373 16.5235 26.4361 16.4293C26.4361 14.0905 24.5336 12.1945 22.1867 12.1945Z" fill="#5D7285"/>
</svg>
