<svg xmlns="http://www.w3.org/2000/svg" width="21" height="20" viewBox="0 0 21 20" fill="none">
  <g clip-path="url(#clip0_2235_107)">
    <mask id="mask0_2235_107" style="mask-type:alpha" maskUnits="userSpaceOnUse" x="0" y="0" width="21" height="20">
      <path d="M11.875 10C11.875 10.6914 11.3164 11.25 10.625 11.25C9.93359 11.25 9.375 10.6914 9.375 10C9.375 9.30859 9.93359 8.75 10.625 8.75C11.3164 8.75 11.875 9.30859 11.875 10ZM0.625 10C0.625 4.47656 5.10156 0 10.625 0C16.1484 0 20.625 4.47656 20.625 10C20.625 15.5234 16.1484 20 10.625 20C5.10156 20 0.625 15.5234 0.625 10ZM13.3242 11.9805L15.4922 6.34375C15.7852 5.55078 15.0391 4.83984 14.2813 5.13281L8.64453 7.30078C8.3125 7.42578 8.05078 7.6875 7.92578 8.01953L5.75781 13.6563C5.46484 14.4141 6.17578 15.1602 6.96875 14.8672L12.6055 12.6992C12.9375 12.5742 13.1992 12.3125 13.3242 11.9805V11.9805Z" fill="black"/>
    </mask>
    <g mask="url(#mask0_2235_107)">
      <rect x="0.625" y="-0.00109863" width="20" height="20" fill="#D4D6DD"/>
    </g>
  </g>
  <defs>
    <clipPath id="clip0_2235_107">
      <rect width="20" height="20" fill="white" transform="translate(0.625)"/>
    </clipPath>
  </defs>
</svg>